<?xml version="1.0" standalone="no"?>
<!DOCTYPE svg PUBLIC "-//W3C//DTD SVG 20010904//EN"
 "http://www.w3.org/TR/2001/REC-SVG-20010904/DTD/svg10.dtd">
<svg version="1.0" xmlns="http://www.w3.org/2000/svg"
 width="540.000000pt" height="540.000000pt" viewBox="0 0 540.000000 540.000000"
 preserveAspectRatio="xMidYMid meet">
<metadata>
Created by potrace 1.14, written by Peter Selinger 2001-2017
</metadata>
<g transform="translate(0.000000,540.000000) scale(0.100000,-0.100000)"
fill="#000000" stroke="none">
<path d="M5 2695 c0 -1457 1 -2052 2 -1322 2 731 2 1923 0 2650 -1 727 -2 130
-2 -1328z"/>
<path d="M2464 5080 c-498 -42 -950 -213 -1299 -490 -400 -319 -678 -748 -804
-1241 -66 -257 -76 -346 -75 -654 0 -235 3 -286 23 -395 90 -501 281 -879 630
-1243 310 -323 751 -567 1161 -641 391 -71 449 -78 630 -80 157 -1 353 9 369
18 3 2 31 7 61 11 30 4 58 9 61 11 3 2 19 5 35 8 120 22 348 99 494 168 554
261 1008 769 1225 1373 107 295 137 459 141 770 3 271 -11 402 -67 610 -111
416 -304 759 -589 1046 -125 126 -285 259 -312 259 -9 0 -52 24 -95 54 -246
169 -535 297 -829 367 -212 50 -516 69 -760 49z"/>
</g>
</svg>
